:SAMPLES-PER-SECOND 30
:FRAME-RANGE 1-744
:FULLY-SPECIFIED
:DEGREES
628
root  -90.8808 38.4237 4.59502 -179.95 31.8966 176.117
RightUpLeg  -19.1573 -6.18502 -7.52851
RightLeg  65.4047 -0.4218 -1.63005
RightFoot  -2.78252 -0.37042 4.69311
RightToes  -5.28216e-011 1.2921e-014 -6.02303e-014
Spine  -1.27858 -0.896102 -5.12713
Spine1  8.45734 0.083178 -6.06396
HEad  -7.4049 -19.9511 10.2444
LeftShoulder1  1.25766 -1.43447 -20.3431
LeftArm  -3.22981 9.59187 -42.959
LeftForeArm  37.7759 2.82705 -12.1667
LeftHand  -0.0285518 5.27586 2.76239
RightShoulder  1.98049 3.14426 24.6375
RightArm  -19.2011 13.948 64.9239
RightForeArm  67.3584 -2.27639 5.68578
RightHand  -0.00703288 -5.43877 -16.3583
LeftUpLeg  -18.0135 -4.6626 -4.8234
LeftLeg  20.4694 1.50661 2.03923
LeftFoot  -5.39243 0.102772 -1.35395
LeftToes  -9.4837e-011 -7.11147e-011 -1.07582e-011
629
root  -90.3835 38.5246 3.74592 179.914 32.2007 176.233
RightUpLeg  -21.4666 -6.76234 -7.36356
RightLeg  61.3769 -1.01815 -2.53832
RightFoot  -5.99829 -0.261671 4.72961
RightToes  -5.28216e-011 1.2921e-014 -6.02303e-014
Spine  -0.79945 -1.44121 -5.89486
Spine1  7.46625 -0.690643 -5.3127
HEad  -7.68429 -19.2317 10.6586
LeftShoulder1  1.36203 -1.98178 -19.517
LeftArm  -3.65768 5.73009 -40.7843
LeftForeArm  35.6338 2.17811 -11.8809
LeftHand  -0.0317294 5.13583 3.24084
RightShoulder  1.87232 2.69132 25.1674
RightArm  -19.6233 12.8623 63.8714
RightForeArm  67.1151 -1.67891 5.72503
RightHand  -0.0191341 -5.35095 -16.4976
LeftUpLeg  -15.8779 -2.07622 -4.98192
LeftLeg  20.0751 -0.573779 1.15174
LeftFoot  -7.01873 0.0732371 -0.822764
LeftToes  -9.4837e-011 -7.11147e-011 -1.07582e-011
630
root  -89.8673 38.6771 2.87675 179.928 32.9902 176.556
RightUpLeg  -23.2835 -7.74472 -6.96565
RightLeg  55.1761 -2.12576 -3.68865
RightFoot  -7.4682 -0.198984 4.38039
RightToes  -5.28216e-011 1.2921e-014 -6.02303e-014
Spine  -1.34626 -1.97507 -5.99556
Spine1  7.73031 -1.21528 -4.87612
HEad  -8.91633 -18.7008 11.5143
LeftShoulder1  1.41453 -2.33608 -18.7786
LeftArm  -4.20731 1.63227 -38.725
LeftForeArm  34.276 1.83538 -11.6435
LeftHand  -0.0315692 5.14098 3.20251
RightShoulder  1.80266 2.41237 25.4792
RightArm  -20.3808 12.075 62.952
RightForeArm  65.8145 -1.52611 5.5063
RightHand  0.00636037 -5.52831 -16.7955
LeftUpLeg  -13.3712 0.156252 -4.64675
LeftLeg  18.916 -1.67776 0.446035
LeftFoot  -8.27265 0.0515472 -0.0682203
LeftToes  -9.4837e-011 -7.11147e-011 -1.07582e-011
631
root  -89.3465 38.8039 1.99357 -179.949 34.2467 176.985
RightUpLeg  -24.5755 -8.55641 -6.21534
RightLeg  47.3583 -3.90296 -4.84392
RightFoot  -8.12844 -0.17074 4.11597
RightToes  -5.28216e-011 1.2921e-014 -6.02303e-014
Spine  -1.74364 -2.20574 -5.66336
Spine1  7.64922 -1.42078 -4.4476
HEad  -9.94046 -18.4687 12.1646
LeftShoulder1  1.50289 -2.79006 -18.3293
LeftArm  -4.45171 -2.26104 -36.7731
LeftForeArm  33.0094 2.04994 -11.6204
LeftHand  -0.00680685 5.70329 6.35338
RightShoulder  1.62261 1.8204 25.5928
RightArm  -22.1331 10.8881 62.2836
RightForeArm  65.1667 -2.0604 4.69288
RightHand  -0.0217132 -5.33073 -17.0696
LeftUpLeg  -10.7864 1.5428 -4.13818
LeftLeg  17.5862 -1.63621 0.254347
LeftFoot  -9.50722 0.0497664 0.459786
LeftToes  -9.4837e-011 -7.11147e-011 -1.07582e-011
632
root  -88.8122 38.9176 1.09575 -179.626 35.8622 177.582
RightUpLeg  -25.0816 -8.79571 -5.21622
RightLeg  37.5741 -5.16821 -4.50542
RightFoot  -7.52442 -0.199242 4.44119
RightToes  -5.28216e-011 1.2921e-014 -6.02303e-014
Spine  -2.12038 -2.34673 -4.85713
Spine1  7.42079 -1.49028 -4.16283
HEad  -10.5414 -18.3979 12.5145
LeftShoulder1  1.52192 -3.05723 -17.5332
LeftArm  -4.65245 -5.42611 -35.5232
LeftForeArm  32.8778 2.30302 -11.6011
LeftHand  -0.0416562 4.83674 4.0532
RightShoulder  1.58221 1.7155 25.4379
RightArm  -23.4301 9.78368 60.9832
RightForeArm  63.33 -3.5784 3.99097
RightHand  -0.0539489 -5.11262 -17.4594
LeftUpLeg  -8.0264 2.46483 -3.53895
LeftLeg  15.8546 -0.97182 0.377935
LeftFoot  -10.6364 0.0614201 0.400261
LeftToes  -9.4837e-011 -7.11147e-011 -1.07582e-011
633
root  -88.2697 38.971 0.195674 -179.253 37.4671 178.199
RightUpLeg  -24.7243 -8.78424 -4.16877
RightLeg  26.2528 -5.21704 -3.00807
RightFoot  -6.29729 -0.245498 4.59765
RightToes  -5.28216e-011 1.2921e-014 -6.02303e-014
Spine  -2.46455 -2.5161 -3.95418
Spine1  7.22834 -1.6287 -3.75608
HEad  -11.1689 -18.4337 12.8205
LeftShoulder1  1.52483 -3.30294 -16.6153
LeftArm  -3.93402 -8.05309 -34.3028
LeftForeArm  30.8699 2.40065 -12.0322
LeftHand  -0.015077 5.54478 6.23018
RightShoulder  1.52259 1.50024 25.6083
RightArm  -24.6827 8.85622 59.3272
RightForeArm  62.7814 -5.51471 3.16433
RightHand  -0.0596412 -5.07212 -17.2869
LeftUpLeg  -5.41735 2.87686 -3.09302
LeftLeg  14.374 0.0980893 0.789228
LeftFoot  -11.9923 0.0733444 0.238085
LeftToes  -9.4837e-011 -7.11147e-011 -1.07582e-011
634
root  -87.6808 38.9447 -0.671889 -179.047 38.7612 178.346
RightUpLeg  -23.7913 -9.1221 -3.30115
RightLeg  14.3403 -4.36865 -1.47429
RightFoot  -5.6809 -0.309662 5.47638
RightToes  -5.28216e-011 1.2921e-014 -6.02303e-014
Spine  -2.87461 -2.77482 -3.8502
Spine1  7.24449 -2.04249 -2.58932
HEad  -12.2316 -18.4007 13.1177
LeftShoulder1  1.57012 -3.51005 -16.5761
LeftArm  -4.261 -9.85821 -32.9527
LeftForeArm  31.0466 1.95477 -11.9446
LeftHand  -0.0409716 4.83571 3.86452
RightShoulder  1.52013 1.4705 25.7601
RightArm  -26.6811 7.7919 57.5304
RightForeArm  63.9119 -5.31233 2.19783
RightHand  -0.0223003 -5.32617 -17.2541
LeftUpLeg  -3.50277 2.9407 -3.09218
LeftLeg  14.0328 1.09353 1.05639
LeftFoot  -13.3406 0.0741547 -0.337526
LeftToes  -9.4837e-011 -7.11147e-011 -1.07582e-011
635
root  -87.0355 38.8354 -1.5395 -179.244 40.2003 178.008
RightUpLeg  -22.5568 -5.20163 -4.82033
RightLeg  3.98236 -8.35315 0.76889
RightFoot  -5.99222 -0.323795 6.05162
RightToes  -5.28216e-011 1.2921e-014 -6.02303e-014
Spine  -3.4176 -2.91288 -3.55194
Spine1  7.65041 -2.12692 -2.45047
HEad  -13.0171 -18.1419 13.3386
LeftShoulder1  1.56792 -3.6229 -16.1328
LeftArm  -3.76211 -11.6366 -32.3317
LeftForeArm  29.9678 1.73831 -12.2383
LeftHand  -0.0448991 4.87205 5.29343
RightShoulder  1.49333 1.34272 26.0672
RightArm  -28.2092 6.29685 55.8207
RightForeArm  64.3195 -5.17767 1.48714
RightHand  0.0848801 -6.03153 -17.7887
LeftUpLeg  -1.69644 2.62834 -3.71619
LeftLeg  14.1766 2.99801 1.83739
LeftFoot  -14.9019 0.0800605 -0.300274
LeftToes  -9.4837e-011 -7.11147e-011 -1.07582e-011
636
root  -86.3491 38.6702 -2.43107 -179.628 41.6889 177.732
RightUpLeg  -21.9781 -2.32124 -4.92015
RightLeg  -2.8096 -11.3559 1.36903
RightFoot  -5.92809 -0.303145 5.55356
RightToes  -5.28216e-011 1.2921e-014 -6.02303e-014
Spine  -4.182 -2.90583 -2.96229
Spine1  8.4794 -2.0862 -2.44196
HEad  -13.0217 -17.7465 12.8057
LeftShoulder1  1.55935 -3.70033 -15.7263
LeftArm  -3.76255 -13.123 -32.6036
LeftForeArm  30.3044 1.77114 -12.2819
LeftHand  -0.0419144 4.88221 4.5339
RightShoulder  1.49301 1.34181 26.0666
RightArm  -30.1383 4.5769 54.2777
RightForeArm  64.7026 -4.99419 0.488686
RightHand  0.13104 -6.30085 -18.3661
LeftUpLeg  0.302535 2.53636 -4.20357
LeftLeg  14.5987 4.61912 2.37317
LeftFoot  -16.668 0.067441 -0.699202
LeftToes  -9.4837e-011 -7.11147e-011 -1.07582e-011
637
root  -85.5786 38.3526 -3.35165 179.563 42.8716 177.141
RightUpLeg  -22.5122 -2.0576 -4.51011
RightLeg  -2.69555 -12.7974 1.75741
RightFoot  -7.70666 -0.326702 8.62566
RightToes  -5.28216e-011 1.2921e-014 -6.02303e-014
Spine  -3.9367 -2.87602 -2.79821
Spine1  8.14168 -2.0976 -2.35093
HEad  -12.3305 -17.6084 11.5359
LeftShoulder1  1.54846 -3.72756 -15.4629
LeftArm  -3.83356 -13.9511 -33.8133
LeftForeArm  30.195 1.87029 -12.2301
LeftHand  -0.0292848 5.25395 5.43627
RightShoulder  1.41921 1.1185 26.0069
RightArm  -32.219 2.09861 52.5955
RightForeArm  65.737 -4.77168 -0.591239
RightHand  0.170206 -6.53888 -18.5242
LeftUpLeg  1.99813 2.49696 -4.85028
LeftLeg  16.432 5.86678 2.88139
LeftFoot  -19.1674 0.0357098 -1.15858
LeftToes  -9.4837e-011 -7.11147e-011 -1.07582e-011
638
root  -84.7966 38.1529 -4.28148 179.263 43.3304 177.336
RightUpLeg  -22.899 -2.44597 -3.76895
RightLeg  0.763231 -11.7128 1.69656
RightFoot  -5.42482 -0.3408 5.87387
RightToes  -5.28216e-011 1.2921e-014 -6.02303e-014
Spine  -3.70922 -2.9697 -1.92261
Spine1  8.19916 -2.42957 -2.00568
HEad  -11.952 -17.602 10.3898
LeftShoulder1  1.56891 -3.78891 -15.5701
LeftArm  -3.96214 -14.3195 -35.6238
LeftForeArm  29.7368 1.80595 -12.1155
LeftHand  -0.0255894 5.36158 5.63271
RightShoulder  1.37206 0.975893 25.9652
RightArm  -32.8249 -1.23438 50.5514
RightForeArm  65.3255 -4.77284 -0.672239
RightHand  0.235705 -6.99635 -18.0679
LeftUpLeg  4.1479 1.92053 -5.02009
LeftLeg  17.3632 6.67298 3.46523
LeftFoot  -20.6653 -0.086916 -2.5854
LeftToes  -9.4837e-011 -7.11147e-011 -1.07582e-011
